<?xml version="1.0" standalone="no"?>
<!DOCTYPE svg PUBLIC "-//W3C//DTD SVG 20010904//EN"
 "http://www.w3.org/TR/2001/REC-SVG-20010904/DTD/svg10.dtd">
<svg version="1.0" xmlns="http://www.w3.org/2000/svg"
 width="793.000000pt" height="876.000000pt" viewBox="0 0 793.000000 876.000000"
 preserveAspectRatio="xMidYMid meet">

<g transform="translate(0.000000,876.000000) scale(0.100000,-0.100000)"
fill="#C1152E" stroke="none">
<path d="M4095 8520 c-156 -15 -835 -144 -835 -160 0 -3 35 -14 78 -24 230
-52 550 -190 752 -323 426 -281 714 -682 834 -1162 58 -230 59 -241 63 -1094
l4 -789 22 6 c12 3 308 117 657 254 l635 248 0 529 c0 375 -4 558 -13 625
-136 1004 -806 1744 -1698 1874 -141 20 -369 27 -499 16z"/>
<path d="M2650 7009 c-323 -50 -605 -288 -700 -594 -28 -88 -38 -272 -21 -370
48 -274 269 -534 536 -630 39 -13 318 -110 620 -214 303 -104 558 -193 568
-197 18 -6 18 18 14 642 -4 737 -2 713 -87 889 -27 55 -73 130 -103 166 -110
133 -289 245 -462 290 -94 24 -269 33 -365 18z"/>
<path d="M5638 3616 l-648 -271 0 -525 c0 -289 -5 -579 -11 -645 -37 -434
-210 -801 -516 -1095 -242 -233 -539 -396 -883 -484 -140 -36 -318 -66 -388
-66 -23 0 -43 -4 -46 -9 -19 -29 466 -34 659 -7 364 52 709 162 1055 337 833
420 1365 1089 1440 1809 15 148 13 1230 -2 1229 -7 -1 -304 -123 -660 -273z"/>
<path d="M2010 3840 c0 -23 -9 -279 -21 -569 -24 -599 -22 -742 11 -846 75
-239 257 -435 495 -534 124 -52 194 -65 350 -64 166 0 251 19 390 87 179 86
310 216 395 391 61 125 82 219 82 355 -1 272 -136 516 -373 678 -87 59 -215
113 -759 324 -300 115 -551 212 -557 215 -9 4 -13 -7 -13 -37z"/>
</g>
</svg>
